<svg width="1920" height="1696" viewBox="0 0 1920 1696" fill="none" xmlns="http://www.w3.org/2000/svg">
<g opacity="0.13" filter="url(#filter0_f_275_261)">
<circle cx="1532.5" cy="1102.5" r="282.5" fill="#00D9FF"/>
</g>
<g opacity="0.5">
<path d="M111 343C129.5 354.5 177 372.1 219 350.5C271.5 323.5 438 93 535.5 93C633 93 701.5 222 728 247.5C754.5 273 810 344 855 350.5C900 357 970.5 342 1087 290.5C1203.5 239 1252.5 241 1280 241C1307.5 241 1345.5 229.5 1444 282.5" stroke="#0D0E25" stroke-width="3" stroke-linecap="round"/>
<path d="M87 397C105.5 408.5 153 426.1 195 404.5C247.5 377.5 414 147 511.5 147C609 147 677.5 276 704 301.5C730.5 327 786 398 831 404.5C876 411 946.5 396 1063 344.5C1179.5 293 1228.5 295 1256 295C1283.5 295 1321.5 283.5 1420 336.5" stroke="#0D0E25" stroke-width="3" stroke-linecap="round"/>
<path d="M87 443C105.5 454.5 153 472.1 195 450.5C247.5 423.5 414 193 511.5 193C609 193 677.5 322 704 347.5C730.5 373 786 444 831 450.5C876 457 946.5 442 1063 390.5C1179.5 339 1228.5 341 1256 341C1283.5 341 1321.5 329.5 1420 382.5" stroke="#0D0E25" stroke-width="3" stroke-linecap="round"/>
<path d="M87 482C105.5 493.5 153 511.1 195 489.5C247.5 462.5 414 232 511.5 232C609 232 677.5 361 704 386.5C730.5 412 786 483 831 489.5C876 496 946.5 481 1063 429.5C1179.5 378 1228.5 380 1256 380C1283.5 380 1321.5 368.5 1420 421.5" stroke="#0D0E25" stroke-width="3" stroke-linecap="round"/>
</g>
<g opacity="0.5">
<path d="M124 719.719C142.5 708.219 190 690.619 232 712.219C284.5 739.219 451 969.719 548.5 969.719C646 969.719 714.5 840.719 741 815.219C767.5 789.719 823 718.719 868 712.219C913 705.719 983.5 720.719 1100 772.219C1216.5 823.719 1265.5 821.719 1293 821.719C1320.5 821.719 1358.5 833.219 1457 780.219" stroke="#0D0E25" stroke-width="3" stroke-linecap="round"/>
<path d="M100 665.719C118.5 654.219 166 636.619 208 658.219C260.5 685.219 427 915.719 524.5 915.719C622 915.719 690.5 786.719 717 761.219C743.5 735.719 799 664.719 844 658.219C889 651.719 959.5 666.719 1076 718.219C1192.5 769.719 1241.5 767.719 1269 767.719C1296.5 767.719 1334.5 779.219 1433 726.219" stroke="#0D0E25" stroke-width="3" stroke-linecap="round"/>
<path d="M100 619.719C118.5 608.219 166 590.619 208 612.219C260.5 639.219 427 869.719 524.5 869.719C622 869.719 690.5 740.719 717 715.219C743.5 689.719 799 618.719 844 612.219C889 605.719 959.5 620.719 1076 672.219C1192.5 723.719 1241.5 721.719 1269 721.719C1296.5 721.719 1334.5 733.219 1433 680.219" stroke="#0D0E25" stroke-width="3" stroke-linecap="round"/>
<path d="M100 580.719C118.5 569.219 166 551.619 208 573.219C260.5 600.219 427 830.719 524.5 830.719C622 830.719 690.5 701.719 717 676.219C743.5 650.719 799 579.719 844 573.219C889 566.719 959.5 581.719 1076 633.219C1192.5 684.719 1241.5 682.719 1269 682.719C1296.5 682.719 1334.5 694.219 1433 641.219" stroke="#0D0E25" stroke-width="3" stroke-linecap="round"/>
</g>
<path opacity="0.02" d="M1028 603C1028 650.67 1036.02 697.873 1051.6 741.914C1067.18 785.955 1090.01 825.972 1118.8 859.68C1147.58 893.387 1181.76 920.126 1219.37 938.368C1256.98 956.611 1297.29 966 1338 966L1338 603L1028 603Z" fill="#FFA412"/>
<path opacity="0.02" d="M1590 653C1590 687.538 1584.19 721.737 1572.91 753.646C1561.63 785.554 1545.09 814.547 1524.25 838.969C1503.4 863.391 1478.65 882.763 1451.41 895.98C1424.17 909.197 1394.98 916 1365.5 916L1365.5 653L1590 653Z" fill="#F26A21"/>
<g opacity="0.2" filter="url(#filter1_f_275_261)">
<circle cx="86.5" cy="126.5" r="255.5" fill="#CC00FF"/>
</g>
<path d="M598 312.563C671.833 312.229 827.5 310.563 859.5 306.563C899.5 301.563 1026 283.063 1052.5 212.063C1079 141.063 1008 129.063 981.5 128.063C955 127.063 858 137.563 824 193.563C790 249.563 830.156 293.325 877.5 322.563C919.5 348.5 975.5 379.563 1060.5 399.563C1145.5 419.563 1521 480.563 1581 493.563C1641 506.563 1746 542.063 1758 565.063C1770 588.063 1773.5 635.063 1758 654.063C1742.5 673.063 1601.5 762.967 1498.5 815.563C1442.5 844.158 1326.33 903.833 1266 931" stroke="#1B1520" stroke-width="4" stroke-linecap="round" stroke-dasharray="15 15"/>
<g style="mix-blend-mode:luminosity" opacity="0.5">
<path d="M936.5 175L941.803 207.197L974 212.5L941.803 217.803L936.5 250L931.197 217.803L899 212.5L931.197 207.197L936.5 175Z" fill="#5E79E3"/>
</g>
<g opacity="0.1">
<path d="M168.5 718L173.803 750.197L206 755.5L173.803 760.803L168.5 793L163.197 760.803L131 755.5L163.197 750.197L168.5 718Z" fill="#5E79E3"/>
</g>
<path d="M1749.5 168.926C1749.95 168.6 1750.04 167.975 1749.72 167.529L1744.41 160.258C1744.09 159.811 1743.46 159.714 1743.02 160.039C1742.57 160.365 1742.47 160.99 1742.8 161.436L1747.51 167.899L1741.05 172.614C1740.6 172.94 1740.51 173.565 1740.83 174.011C1741.16 174.458 1741.78 174.555 1742.23 174.23L1749.5 168.926ZM1643.41 215.266L1644.1 214.543L1643.41 215.266ZM1706.92 167.469L1706.71 166.491L1706.92 167.469ZM1622.98 191.606L1622.72 190.639L1622.98 191.606ZM1692.51 197.967L1691.52 197.842L1692.51 197.967ZM1748.91 168.118C1749.07 167.13 1749.07 167.13 1749.07 167.13C1749.07 167.13 1749.07 167.13 1749.07 167.13C1749.07 167.13 1749.07 167.13 1749.07 167.13C1749.07 167.13 1749.06 167.13 1749.06 167.13C1749.06 167.13 1749.06 167.13 1749.06 167.13C1749.06 167.129 1749.06 167.129 1749.06 167.128C1749.05 167.127 1749.04 167.126 1749.03 167.124C1749 167.121 1748.97 167.115 1748.92 167.108C1748.83 167.094 1748.69 167.074 1748.52 167.048C1748.16 166.996 1747.64 166.921 1746.97 166.832L1746.7 168.814C1747.36 168.902 1747.88 168.976 1748.23 169.027C1748.4 169.052 1748.53 169.072 1748.62 169.086C1748.67 169.092 1748.7 169.098 1748.72 169.101C1748.74 169.103 1748.74 169.104 1748.75 169.105C1748.75 169.105 1748.75 169.106 1748.75 169.106C1748.76 169.106 1748.76 169.106 1748.76 169.106C1748.76 169.106 1748.76 169.106 1748.76 169.106C1748.76 169.106 1748.76 169.106 1748.76 169.106C1748.76 169.106 1748.76 169.106 1748.76 169.106C1748.76 169.106 1748.76 169.106 1748.91 168.118ZM1742.76 166.314C1741.49 166.172 1740.07 166.024 1738.53 165.883L1738.35 167.875C1739.87 168.014 1741.28 168.161 1742.53 168.301L1742.76 166.314ZM1734.31 165.539C1732.95 165.442 1731.53 165.356 1730.08 165.287L1729.98 167.284C1731.42 167.353 1732.82 167.438 1734.17 167.534L1734.31 165.539ZM1725.84 165.138C1724.43 165.108 1723.01 165.097 1721.59 165.111L1721.6 167.111C1723 167.098 1724.4 167.108 1725.79 167.138L1725.84 165.138ZM1717.33 165.232C1715.89 165.301 1714.47 165.401 1713.07 165.538L1713.27 167.529C1714.63 167.395 1716.02 167.297 1717.43 167.229L1717.33 165.232ZM1708.82 166.092C1708.1 166.212 1707.4 166.345 1706.71 166.491L1707.13 168.447C1707.78 168.308 1708.46 168.181 1709.15 168.065L1708.82 166.092ZM1706.71 166.491C1706.09 166.623 1705.46 166.761 1704.82 166.905L1705.25 168.856C1705.89 168.715 1706.51 168.578 1707.13 168.447L1706.71 166.491ZM1700.99 167.798C1699.75 168.1 1698.49 168.42 1697.2 168.757L1697.71 170.692C1698.98 170.357 1700.24 170.04 1701.47 169.741L1700.99 167.798ZM1693.43 169.78C1692.19 170.127 1690.93 170.489 1689.67 170.865L1690.24 172.782C1691.49 172.409 1692.74 172.05 1693.97 171.706L1693.43 169.78ZM1685.93 172.012C1684.69 172.402 1683.45 172.806 1682.21 173.221L1682.84 175.118C1684.07 174.706 1685.31 174.306 1686.53 173.919L1685.93 172.012ZM1678.51 174.496C1677.28 174.932 1676.05 175.379 1674.83 175.838L1675.53 177.71C1676.74 177.256 1677.96 176.813 1679.18 176.381L1678.51 174.496ZM1671.18 177.254C1669.96 177.742 1668.75 178.241 1667.56 178.75L1668.34 180.589C1669.52 180.086 1670.71 179.593 1671.92 179.111L1671.18 177.254ZM1663.97 180.334C1662.77 180.886 1661.58 181.449 1660.43 182.022L1661.31 183.815C1662.45 183.251 1663.62 182.696 1664.81 182.153L1663.97 180.334ZM1656.93 183.827C1655.75 184.463 1654.6 185.11 1653.5 185.769L1654.52 187.487C1655.6 186.844 1656.72 186.211 1657.88 185.588L1656.93 183.827ZM1650.16 187.873C1649.03 188.629 1647.96 189.4 1646.95 190.183L1648.17 191.764C1649.14 191.012 1650.18 190.268 1651.28 189.534L1650.16 187.873ZM1643.9 192.768C1642.88 193.722 1641.96 194.696 1641.14 195.69L1642.69 196.956C1643.44 196.04 1644.3 195.131 1645.27 194.228L1643.9 192.768ZM1638.86 199.082C1638.19 200.361 1637.71 201.674 1637.46 203.018L1639.42 203.387C1639.63 202.265 1640.04 201.141 1640.63 200.014L1638.86 199.082ZM1637.45 207.254C1637.69 208.569 1638.17 209.88 1638.89 211.183L1640.64 210.214C1640.02 209.083 1639.62 207.974 1639.41 206.889L1637.45 207.254ZM1641.29 214.511C1641.73 215.005 1642.21 215.498 1642.72 215.99L1644.1 214.543C1643.63 214.086 1643.19 213.632 1642.78 213.18L1641.29 214.511ZM1642.72 215.99C1643.23 216.473 1643.74 216.934 1644.26 217.373L1645.55 215.848C1645.07 215.434 1644.58 214.999 1644.1 214.543L1642.72 215.99ZM1647.57 219.842C1648.76 220.614 1649.97 221.282 1651.19 221.851L1652.03 220.039C1650.9 219.509 1649.77 218.887 1648.66 218.165L1647.57 219.842ZM1655.07 223.321C1656.41 223.721 1657.77 224.008 1659.12 224.192L1659.39 222.211C1658.14 222.04 1656.88 221.774 1655.63 221.404L1655.07 223.321ZM1663.27 224.438C1664.66 224.415 1666.04 224.289 1667.4 224.068L1667.07 222.094C1665.81 222.3 1664.53 222.417 1663.24 222.438L1663.27 224.438ZM1671.42 223.119C1672.74 222.711 1674.03 222.215 1675.28 221.64L1674.45 219.823C1673.27 220.362 1672.07 220.827 1670.83 221.208L1671.42 223.119ZM1678.92 219.682C1680.09 218.954 1681.21 218.154 1682.28 217.29L1681.02 215.735C1680.01 216.547 1678.96 217.3 1677.86 217.984L1678.92 219.682ZM1685.32 214.505C1686.28 213.51 1687.17 212.459 1687.99 211.36L1686.39 210.164C1685.62 211.195 1684.78 212.182 1683.88 213.116L1685.32 214.505ZM1690.24 207.889C1690.91 206.676 1691.5 205.421 1691.99 204.133L1690.12 203.422C1689.66 204.618 1689.12 205.786 1688.49 206.918L1690.24 207.889ZM1693.16 200.147C1693.3 199.467 1693.42 198.782 1693.51 198.092L1691.52 197.842C1691.44 198.477 1691.34 199.108 1691.2 199.735L1693.16 200.147ZM1693.51 198.092C1693.6 197.368 1693.64 196.67 1693.64 195.997L1691.64 195.997C1691.64 196.581 1691.6 197.195 1691.52 197.842L1693.51 198.092ZM1692.95 191.785C1692.44 190.384 1691.67 189.164 1690.67 188.115L1689.22 189.493C1690.04 190.349 1690.66 191.333 1691.07 192.465L1692.95 191.785ZM1687.27 185.581C1686.1 184.962 1684.81 184.455 1683.42 184.046L1682.86 185.964C1684.14 186.343 1685.3 186.802 1686.33 187.347L1687.27 185.581ZM1679.46 183.169C1678.18 182.966 1676.85 182.819 1675.46 182.721L1675.32 184.716C1676.66 184.81 1677.94 184.951 1679.15 185.144L1679.46 183.169ZM1671.45 182.573C1670.15 182.564 1668.82 182.589 1667.47 182.645L1667.55 184.643C1668.88 184.589 1670.17 184.564 1671.43 184.572L1671.45 182.573ZM1663.49 182.887C1662.19 182.99 1660.87 183.117 1659.54 183.264L1659.76 185.252C1661.07 185.107 1662.37 184.982 1663.65 184.881L1663.49 182.887ZM1655.61 183.751C1654.3 183.929 1653 184.124 1651.68 184.332L1652 186.307C1653.3 186.101 1654.59 185.909 1655.88 185.733L1655.61 183.751ZM1647.78 184.992C1646.48 185.224 1645.18 185.467 1643.89 185.72L1644.27 187.683C1645.55 187.432 1646.84 187.19 1648.13 186.961L1647.78 184.992ZM1640.01 186.508C1638.71 186.782 1637.42 187.063 1636.15 187.349L1636.59 189.3C1637.85 189.016 1639.13 188.737 1640.42 188.465L1640.01 186.508ZM1632.29 188.24C1630.99 188.549 1629.71 188.86 1628.46 189.171L1628.94 191.112C1630.18 190.803 1631.46 190.493 1632.76 190.186L1632.29 188.24ZM1624.62 190.143C1623.98 190.31 1623.35 190.475 1622.72 190.639L1623.23 192.573C1623.85 192.41 1624.48 192.245 1625.13 192.079L1624.62 190.143ZM1622.72 190.639C1622.11 190.801 1621.5 190.968 1620.9 191.139L1621.45 193.063C1622.04 192.895 1622.63 192.732 1623.23 192.573L1622.72 190.639ZM1617.28 192.243C1616.07 192.639 1614.88 193.053 1613.71 193.48L1614.41 195.357C1615.54 194.938 1616.71 194.533 1617.9 194.144L1617.28 192.243ZM1610.19 194.848C1609 195.336 1607.85 195.835 1606.72 196.343L1607.55 198.166C1608.65 197.667 1609.79 197.177 1610.95 196.699L1610.19 194.848ZM1603.31 197.959C1602.15 198.533 1601.03 199.113 1599.96 199.691L1600.9 201.452C1601.96 200.884 1603.06 200.315 1604.2 199.751L1603.31 197.959ZM1596.66 201.537C1595.52 202.203 1594.45 202.859 1593.44 203.497L1594.5 205.188C1595.5 204.562 1596.55 203.918 1597.67 203.265L1596.66 201.537ZM1590.28 205.571C1589.13 206.357 1588.1 207.093 1587.2 207.76L1588.39 209.366C1589.27 208.714 1590.28 207.993 1591.41 207.223L1590.28 205.571ZM1584.2 210.091C1583.73 210.478 1583.37 210.785 1583.13 210.997C1583 211.103 1582.91 211.185 1582.85 211.241C1582.82 211.269 1582.79 211.291 1582.78 211.305C1582.77 211.313 1582.76 211.319 1582.76 211.323C1582.75 211.325 1582.75 211.327 1582.75 211.328C1582.75 211.328 1582.75 211.329 1582.75 211.329C1582.75 211.329 1582.75 211.33 1582.75 211.33C1582.75 211.33 1582.75 211.33 1582.75 211.33C1582.75 211.33 1582.75 211.33 1582.75 211.33C1582.75 211.33 1582.75 211.33 1583.42 212.069C1584.1 212.808 1584.1 212.808 1584.1 212.808C1584.1 212.808 1584.1 212.808 1584.1 212.808C1584.1 212.808 1584.1 212.808 1584.1 212.808C1584.1 212.808 1584.1 212.808 1584.1 212.808C1584.1 212.808 1584.1 212.808 1584.1 212.807C1584.1 212.807 1584.1 212.806 1584.1 212.805C1584.1 212.802 1584.11 212.798 1584.11 212.791C1584.13 212.779 1584.15 212.76 1584.18 212.735C1584.23 212.685 1584.32 212.608 1584.44 212.508C1584.67 212.308 1585.01 212.013 1585.47 211.638L1584.2 210.091Z" fill="#565D87"/>
<path d="M-21.1711 818.697C-20.6146 818.459 -20.0551 818.227 -19.4927 818H45.4927C46.0551 818.227 46.6146 818.459 47.1711 818.697H-21.1711Z" fill="#0C112C"/>
<path d="M-34.2478 825.668C-33.8853 825.433 -33.5209 825.201 -33.1547 824.971H59.1547C59.5209 825.201 59.8853 825.433 60.2479 825.668H-34.2478Z" fill="#0C112C"/>
<path d="M-43.5742 832.639C-43.3011 832.405 -43.0265 832.173 -42.7505 831.942H68.7505C69.0265 832.173 69.3011 832.405 69.5742 832.639H-43.5742Z" fill="#0C112C"/>
<path d="M-50.822 839.61C-50.6056 839.376 -50.3878 839.144 -50.1688 838.913H76.1688C76.3878 839.144 76.6056 839.376 76.822 839.61H-50.822Z" fill="#0C112C"/>
<path d="M-56.6414 846.581C-56.4663 846.348 -56.2901 846.115 -56.1128 845.884H82.1128C82.2901 846.115 82.4663 846.348 82.6414 846.581H-56.6414Z" fill="#0C112C"/>
<path d="M-61.3646 853.552C-61.2225 853.319 -61.0794 853.086 -60.9353 852.855H86.9353C87.0795 853.086 87.2225 853.319 87.3645 853.552H-61.3646Z" fill="#0C112C"/>
<path d="M-65.1869 860.523C-65.0727 860.29 -64.9575 860.058 -64.8412 859.826H90.8412C90.9575 860.058 91.0727 860.29 91.1869 860.523H-65.1869Z" fill="#0C112C"/>
<path d="M-68.2328 867.494C-68.143 867.261 -68.0522 867.029 -67.9605 866.797H93.9605C94.0522 867.029 94.143 867.261 94.2328 867.494H-68.2328Z" fill="#0C112C"/>
<path d="M-70.5855 874.465C-70.5179 874.232 -70.4492 874 -70.3797 873.768H96.3797C96.4492 874 96.5179 874.232 96.5855 874.465H-70.5855Z" fill="#0C112C"/>
<path d="M-72.3025 881.436C-72.2553 881.203 -72.2072 880.971 -72.1582 880.739H98.1582C98.2072 880.971 98.2553 881.203 98.3025 881.436H-72.3025Z" fill="#0C112C"/>
<path d="M-73.4234 888.407C-73.3957 888.174 -73.3669 887.942 -73.3373 887.71H99.3373C99.367 887.942 99.3957 888.174 99.4235 888.407H-73.4234Z" fill="#0C112C"/>
<path d="M-73.9754 895.378C-73.9662 895.145 -73.9562 894.913 -73.9452 894.68H99.9452C99.9562 894.913 99.9662 895.145 99.9754 895.378H-73.9754Z" fill="#0C112C"/>
<path d="M-73.9754 902.349C-73.9845 902.116 -73.9927 901.884 -74 901.651H100C99.9927 901.884 99.9845 902.116 99.9754 902.349H-73.9754Z" fill="#0C112C"/>
<path d="M-73.4234 909.32C-73.4512 909.087 -73.478 908.855 -73.5039 908.622H99.5039C99.478 908.855 99.4512 909.087 99.4235 909.32H-73.4234Z" fill="#0C112C"/>
<path d="M-72.3025 916.29C-72.3496 916.058 -72.3957 915.826 -72.4409 915.593H98.4409C98.3957 915.826 98.3496 916.058 98.3025 916.29H-72.3025Z" fill="#0C112C"/>
<path d="M-70.5855 923.261C-70.653 923.029 -70.7195 922.797 -70.7851 922.564H96.7851C96.7195 922.797 96.653 923.029 96.5855 923.261H-70.5855Z" fill="#0C112C"/>
<path d="M-68.2328 930.232C-68.3222 930 -68.4106 929.768 -68.4981 929.535H94.4981C94.4106 929.768 94.3222 930 94.2328 930.232H-68.2328Z" fill="#0C112C"/>
<path d="M-65.1869 937.203C-65.3005 936.972 -65.4131 936.739 -65.5248 936.506H91.5248C91.4131 936.739 91.3005 936.972 91.1869 937.203H-65.1869Z" fill="#0C112C"/>
<path d="M-61.3646 944.174C-61.5057 943.943 -61.6458 943.71 -61.7848 943.477H87.7849C87.6458 943.71 87.5057 943.943 87.3645 944.174H-61.3646Z" fill="#0C112C"/>
<path d="M-56.6414 951.145C-56.815 950.914 -56.9876 950.681 -57.159 950.448H83.159C82.9876 950.681 82.815 950.914 82.6414 951.145H-56.6414Z" fill="#0C112C"/>
<path d="M-50.822 958.116C-51.0363 957.885 -51.2494 957.653 -51.4612 957.419H77.4612C77.2494 957.653 77.0363 957.885 76.822 958.116H-50.822Z" fill="#0C112C"/>
<path d="M-43.5742 965.087C-43.8435 964.856 -44.1113 964.624 -44.3778 964.39H70.3778C70.1113 964.624 69.8435 964.856 69.5742 965.087H-43.5742Z" fill="#0C112C"/>
<path d="M-34.2478 972.058C-34.6025 971.828 -34.9553 971.596 -35.3063 971.361H61.3063C60.9553 971.596 60.6025 971.828 60.2479 972.058H-34.2478Z" fill="#0C112C"/>
<path d="M-21.1711 979.029C-21.7024 978.802 -22.231 978.569 -22.7568 978.332H48.7568C48.231 978.569 47.7024 978.802 47.1711 979.029H-21.1711Z" fill="#0C112C"/>
<path d="M24.0627 985.303C20.4399 985.763 16.7476 986 13 986C9.25241 986 5.56013 985.763 1.93732 985.303H24.0627Z" fill="#0C112C"/>
<path d="M-21.1711 818.697C-20.6146 818.459 -20.0551 818.227 -19.4927 818H45.4927C46.0551 818.227 46.6146 818.459 47.1711 818.697H-21.1711Z" stroke="#0C112C" stroke-linejoin="round"/>
<path d="M-34.2478 825.668C-33.8853 825.433 -33.5209 825.201 -33.1547 824.971H59.1547C59.5209 825.201 59.8853 825.433 60.2479 825.668H-34.2478Z" stroke="#0C112C" stroke-linejoin="round"/>
<path d="M-43.5742 832.639C-43.3011 832.405 -43.0265 832.173 -42.7505 831.942H68.7505C69.0265 832.173 69.3011 832.405 69.5742 832.639H-43.5742Z" stroke="#0C112C" stroke-linejoin="round"/>
<path d="M-50.822 839.61C-50.6056 839.376 -50.3878 839.144 -50.1688 838.913H76.1688C76.3878 839.144 76.6056 839.376 76.822 839.61H-50.822Z" stroke="#0C112C" stroke-linejoin="round"/>
<path d="M-56.6414 846.581C-56.4663 846.348 -56.2901 846.115 -56.1128 845.884H82.1128C82.2901 846.115 82.4663 846.348 82.6414 846.581H-56.6414Z" stroke="#0C112C" stroke-linejoin="round"/>
<path d="M-61.3646 853.552C-61.2225 853.319 -61.0794 853.086 -60.9353 852.855H86.9353C87.0795 853.086 87.2225 853.319 87.3645 853.552H-61.3646Z" stroke="#0C112C" stroke-linejoin="round"/>
<path d="M-65.1869 860.523C-65.0727 860.29 -64.9575 860.058 -64.8412 859.826H90.8412C90.9575 860.058 91.0727 860.29 91.1869 860.523H-65.1869Z" stroke="#0C112C" stroke-linejoin="round"/>
<path d="M-68.2328 867.494C-68.143 867.261 -68.0522 867.029 -67.9605 866.797H93.9605C94.0522 867.029 94.143 867.261 94.2328 867.494H-68.2328Z" stroke="#0C112C" stroke-linejoin="round"/>
<path d="M-70.5855 874.465C-70.5179 874.232 -70.4492 874 -70.3797 873.768H96.3797C96.4492 874 96.5179 874.232 96.5855 874.465H-70.5855Z" stroke="#0C112C" stroke-linejoin="round"/>
<path d="M-72.3025 881.436C-72.2553 881.203 -72.2072 880.971 -72.1582 880.739H98.1582C98.2072 880.971 98.2553 881.203 98.3025 881.436H-72.3025Z" stroke="#0C112C" stroke-linejoin="round"/>
<path d="M-73.4234 888.407C-73.3957 888.174 -73.3669 887.942 -73.3373 887.71H99.3373C99.367 887.942 99.3957 888.174 99.4235 888.407H-73.4234Z" stroke="#0C112C" stroke-linejoin="round"/>
<path d="M-73.9754 895.378C-73.9662 895.145 -73.9562 894.913 -73.9452 894.68H99.9452C99.9562 894.913 99.9662 895.145 99.9754 895.378H-73.9754Z" stroke="#0C112C" stroke-linejoin="round"/>
<path d="M-73.9754 902.349C-73.9845 902.116 -73.9927 901.884 -74 901.651H100C99.9927 901.884 99.9845 902.116 99.9754 902.349H-73.9754Z" stroke="#0C112C" stroke-linejoin="round"/>
<path d="M-73.4234 909.32C-73.4512 909.087 -73.478 908.855 -73.5039 908.622H99.5039C99.478 908.855 99.4512 909.087 99.4235 909.32H-73.4234Z" stroke="#0C112C" stroke-linejoin="round"/>
<path d="M-72.3025 916.29C-72.3496 916.058 -72.3957 915.826 -72.4409 915.593H98.4409C98.3957 915.826 98.3496 916.058 98.3025 916.29H-72.3025Z" stroke="#0C112C" stroke-linejoin="round"/>
<path d="M-70.5855 923.261C-70.653 923.029 -70.7195 922.797 -70.7851 922.564H96.7851C96.7195 922.797 96.653 923.029 96.5855 923.261H-70.5855Z" stroke="#0C112C" stroke-linejoin="round"/>
<path d="M-68.2328 930.232C-68.3222 930 -68.4106 929.768 -68.4981 929.535H94.4981C94.4106 929.768 94.3222 930 94.2328 930.232H-68.2328Z" stroke="#0C112C" stroke-linejoin="round"/>
<path d="M-65.1869 937.203C-65.3005 936.972 -65.4131 936.739 -65.5248 936.506H91.5248C91.4131 936.739 91.3005 936.972 91.1869 937.203H-65.1869Z" stroke="#0C112C" stroke-linejoin="round"/>
<path d="M-61.3646 944.174C-61.5057 943.943 -61.6458 943.71 -61.7848 943.477H87.7849C87.6458 943.71 87.5057 943.943 87.3645 944.174H-61.3646Z" stroke="#0C112C" stroke-linejoin="round"/>
<path d="M-56.6414 951.145C-56.815 950.914 -56.9876 950.681 -57.159 950.448H83.159C82.9876 950.681 82.815 950.914 82.6414 951.145H-56.6414Z" stroke="#0C112C" stroke-linejoin="round"/>
<path d="M-50.822 958.116C-51.0363 957.885 -51.2494 957.653 -51.4612 957.419H77.4612C77.2494 957.653 77.0363 957.885 76.822 958.116H-50.822Z" stroke="#0C112C" stroke-linejoin="round"/>
<path d="M-43.5742 965.087C-43.8435 964.856 -44.1113 964.624 -44.3778 964.39H70.3778C70.1113 964.624 69.8435 964.856 69.5742 965.087H-43.5742Z" stroke="#0C112C" stroke-linejoin="round"/>
<path d="M-34.2478 972.058C-34.6025 971.828 -34.9553 971.596 -35.3063 971.361H61.3063C60.9553 971.596 60.6025 971.828 60.2479 972.058H-34.2478Z" stroke="#0C112C" stroke-linejoin="round"/>
<path d="M-21.1711 979.029C-21.7024 978.802 -22.231 978.569 -22.7568 978.332H48.7568C48.231 978.569 47.7024 978.802 47.1711 979.029H-21.1711Z" stroke="#0C112C" stroke-linejoin="round"/>
<path d="M24.0627 985.303C20.4399 985.763 16.7476 986 13 986C9.25241 986 5.56013 985.763 1.93732 985.303H24.0627Z" stroke="#0C112C" stroke-linejoin="round"/>
<defs>
<filter id="filter0_f_275_261" x="939.1" y="509.1" width="1186.8" height="1186.8" filterUnits="userSpaceOnUse" color-interpolation-filters="sRGB">
<feFlood flood-opacity="0" result="BackgroundImageFix"/>
<feBlend mode="normal" in="SourceGraphic" in2="BackgroundImageFix" result="shape"/>
<feGaussianBlur stdDeviation="155.45" result="effect1_foregroundBlur_275_261"/>
</filter>
<filter id="filter1_f_275_261" x="-479.9" y="-439.9" width="1132.8" height="1132.8" filterUnits="userSpaceOnUse" color-interpolation-filters="sRGB">
<feFlood flood-opacity="0" result="BackgroundImageFix"/>
<feBlend mode="normal" in="SourceGraphic" in2="BackgroundImageFix" result="shape"/>
<feGaussianBlur stdDeviation="155.45" result="effect1_foregroundBlur_275_261"/>
</filter>
</defs>
</svg>
